# xmcd
#
# Track frame offsets: 
#        150
#        25339
#        38796
#        63053
#        85662
#        104299
#        118232
#        136358
#        148907
#        163104
#        189586
#        205789
#
# Disc length: 2898 seconds
#
# Revision: 0
# Processed by: cddbd v1.5.2PL0 Copyright (c) Steve Scherf et al.
# Submitted via: ExactAudioCopy v1.0b3
#
DISCID=a70b500c
DTITLE=Various Artist - #1 R&B Hits
DYEAR=2012
DGENRE=R&B
TTITLE0=Percy Sledge - When A Man Loves A Woman
TTITLE1=The Chi-Lites - Oh Girl
TTITLE2=Marvin Gaye - Let's Get It On
TTITLE3=Chaka Khan - I'm Every Woman
TTITLE4=The Manhattans - Kiss And Say Goodbye
TTITLE5=The Miracles - Tears Of A Clown
TTITLE6=Peaches and Herb - Reunited
TTITLE7=The O'Jays - Love Train
TTITLE8=The Spinners - I'll Be Around
TTITLE9=The Stylistics - You Make Me Feel Brand New
TTITLE10=Harold Melvin and The Blue Notes - If You Don't Know Me By Now
TTITLE11=The Three Degrees - When Will I See You Again
EXTD=
EXTT0=
EXTT1=
EXTT2=
EXTT3=
EXTT4=
EXTT5=
EXTT6=
EXTT7=
EXTT8=
EXTT9=
EXTT10=
EXTT11=
PLAYORDER=
